<?xml version="1.0" encoding="UTF-8"?>
<svg xmlns="http://www.w3.org/2000/svg" version="1.1" viewBox="0 0 2000 2000">
  <!-- Generator: Adobe Illustrator 30.1.0, SVG Export Plug-In . SVG Version: 2.1.1 Build 136)  -->
  <defs>
    <style>
      .st0 {
        fill: #fff;
      }

      .st1 {
        fill: red;
      }
    </style>
  </defs>
  <rect class="st0" width="2000" height="2000"/>
  <g id="Layer_1">
    <rect width="2000" height="2000"/>
    <path class="st1" d="M370.7,263.2h788c92.8,0,170.2,14.7,232.3,44,62.1,29.4,108.5,71.6,139.2,126.9,30.7,55.3,46,121.8,46,199.5s-15,138.5-45,190.3c-30,51.9-69.3,91.8-117.7,119.7-48.4,28-100.6,44.7-156.6,50.1l2-49.1c64.1,6.8,123.8,23.5,179.1,50.1,55.3,26.6,101,67.2,137.1,121.8,36.1,54.6,54.2,124.2,54.2,208.8,0,131-36.8,232.3-110.5,303.9-73.7,71.6-180.1,107.4-319.3,107.4H370.7V263.2ZM616.3,1413.4h464.6c20.5-2.7,37.9-9.2,52.2-19.4,14.3-10.2,25.2-24.9,32.7-44,7.5-19.1,11.3-43,11.3-71.6s-3.8-52.5-11.3-71.6c-7.5-19.1-18.4-33.8-32.7-44s-31.7-16.7-52.2-19.4h-335.7v-288.6h270.2c28.7,0,52.2-4.8,70.6-14.3,18.4-9.5,32-24.2,40.9-44,8.9-19.8,13.3-45.3,13.3-76.7s-3.8-52.5-11.3-71.6c-7.5-19.1-19.1-33.4-34.8-43-15.7-9.5-35.1-15.7-58.3-18.4h-419.6l194.4-169.9v1166.6l-194.4-169.9Z"/>
  </g>
</svg>